<mxfile host="app.diagrams.net" modified="2021-09-12T21:42:09.571Z" agent="5.0 (Windows NT 10.0; Win64; x64) AppleWebKit/537.36 (KHTML, like Gecko) Chrome/93.0.4577.63 Safari/537.36" etag="Ghkbcv47tHNMJ3vQ2pOg" version="15.1.4" type="github">
  <diagram id="WoEiYBUSZKPod3xz_pdV" name="Page-1">
    <mxGraphModel dx="1240" dy="643" grid="1" gridSize="10" guides="1" tooltips="1" connect="1" arrows="1" fold="1" page="1" pageScale="1" pageWidth="827" pageHeight="1169" math="0" shadow="0">
      <root>
        <mxCell id="0" />
        <mxCell id="1" parent="0" />
        <mxCell id="hvs8nfQZ57HfEIOSIwbS-4" value="" style="endArrow=classic;html=1;exitX=1;exitY=0;exitDx=0;exitDy=0;entryX=1;entryY=0.5;entryDx=0;entryDy=0;" parent="1" source="hvs8nfQZ57HfEIOSIwbS-11" target="hvs8nfQZ57HfEIOSIwbS-8" edge="1">
          <mxGeometry relative="1" as="geometry">
            <mxPoint x="361" y="30" as="sourcePoint" />
            <mxPoint x="510" y="190" as="targetPoint" />
            <Array as="points">
              <mxPoint x="470" y="270" />
              <mxPoint x="470" y="240" />
            </Array>
          </mxGeometry>
        </mxCell>
        <mxCell id="hvs8nfQZ57HfEIOSIwbS-5" value="includes" style="edgeLabel;resizable=0;html=1;align=center;verticalAlign=middle;" parent="hvs8nfQZ57HfEIOSIwbS-4" connectable="0" vertex="1">
          <mxGeometry relative="1" as="geometry" />
        </mxCell>
        <mxCell id="hvs8nfQZ57HfEIOSIwbS-6" value="&lt;font style=&quot;font-size: 24px&quot;&gt;User&lt;/font&gt;" style="shape=umlActor;verticalLabelPosition=bottom;verticalAlign=top;html=1;outlineConnect=0;" parent="1" vertex="1">
          <mxGeometry x="60" y="325" width="100" height="190" as="geometry" />
        </mxCell>
        <mxCell id="hvs8nfQZ57HfEIOSIwbS-8" value="&lt;font style=&quot;font-size: 14px&quot;&gt;Login&lt;/font&gt;" style="ellipse;whiteSpace=wrap;html=1;" parent="1" vertex="1">
          <mxGeometry x="320" y="180" width="110" height="40" as="geometry" />
        </mxCell>
        <mxCell id="hvs8nfQZ57HfEIOSIwbS-9" value="&lt;font style=&quot;font-size: 14px&quot;&gt;Compare and Apply&lt;/font&gt;" style="ellipse;whiteSpace=wrap;html=1;" parent="1" vertex="1">
          <mxGeometry x="320" y="250" width="110" height="40" as="geometry" />
        </mxCell>
        <mxCell id="hvs8nfQZ57HfEIOSIwbS-10" value="&lt;font style=&quot;font-size: 14px&quot;&gt;Apply For Credit Card&lt;/font&gt;" style="ellipse;whiteSpace=wrap;html=1;" parent="1" vertex="1">
          <mxGeometry x="320" y="440" width="120" height="40" as="geometry" />
        </mxCell>
        <mxCell id="hvs8nfQZ57HfEIOSIwbS-11" value="&lt;font style=&quot;font-size: 14px&quot;&gt;Apply For Loan&lt;/font&gt;" style="ellipse;whiteSpace=wrap;html=1;" parent="1" vertex="1">
          <mxGeometry x="320" y="310" width="110" height="40" as="geometry" />
        </mxCell>
        <mxCell id="hvs8nfQZ57HfEIOSIwbS-12" value="&lt;font style=&quot;font-size: 14px&quot;&gt;Sign Up&lt;/font&gt;" style="ellipse;whiteSpace=wrap;html=1;" parent="1" vertex="1">
          <mxGeometry x="320" y="110" width="110" height="40" as="geometry" />
        </mxCell>
        <mxCell id="hvs8nfQZ57HfEIOSIwbS-13" value="&lt;font style=&quot;font-size: 14px&quot;&gt;Logout&lt;/font&gt;" style="ellipse;whiteSpace=wrap;html=1;" parent="1" vertex="1">
          <mxGeometry x="320" y="740" width="110" height="40" as="geometry" />
        </mxCell>
        <mxCell id="hvs8nfQZ57HfEIOSIwbS-14" value="&lt;font style=&quot;font-size: 14px&quot;&gt;Eligibility Check&lt;/font&gt;" style="ellipse;whiteSpace=wrap;html=1;" parent="1" vertex="1">
          <mxGeometry x="320" y="370" width="110" height="40" as="geometry" />
        </mxCell>
        <mxCell id="hvs8nfQZ57HfEIOSIwbS-15" value="&lt;font style=&quot;font-size: 14px&quot;&gt;Best Credit Card Plans&lt;/font&gt;" style="ellipse;whiteSpace=wrap;html=1;" parent="1" vertex="1">
          <mxGeometry x="470" y="480" width="120" height="50" as="geometry" />
        </mxCell>
        <mxCell id="hvs8nfQZ57HfEIOSIwbS-16" value="&lt;font style=&quot;font-size: 14px&quot;&gt;Best Loan Plans&lt;/font&gt;" style="ellipse;whiteSpace=wrap;html=1;" parent="1" vertex="1">
          <mxGeometry x="320" y="500" width="110" height="40" as="geometry" />
        </mxCell>
        <mxCell id="hvs8nfQZ57HfEIOSIwbS-17" value="&lt;font style=&quot;font-size: 14px&quot;&gt;Home Loan&lt;/font&gt;" style="ellipse;whiteSpace=wrap;html=1;" parent="1" vertex="1">
          <mxGeometry x="610" y="210" width="110" height="40" as="geometry" />
        </mxCell>
        <mxCell id="hvs8nfQZ57HfEIOSIwbS-18" value="&lt;font style=&quot;font-size: 14px&quot;&gt;Startup Loan&lt;/font&gt;" style="ellipse;whiteSpace=wrap;html=1;" parent="1" vertex="1">
          <mxGeometry x="610" y="270" width="110" height="40" as="geometry" />
        </mxCell>
        <mxCell id="hvs8nfQZ57HfEIOSIwbS-19" value="&lt;font style=&quot;font-size: 14px&quot;&gt;Education Loan&lt;/font&gt;" style="ellipse;whiteSpace=wrap;html=1;" parent="1" vertex="1">
          <mxGeometry x="610" y="340" width="110" height="40" as="geometry" />
        </mxCell>
        <mxCell id="hvs8nfQZ57HfEIOSIwbS-20" value="&lt;font style=&quot;font-size: 14px&quot;&gt;Car Loan&lt;/font&gt;" style="ellipse;whiteSpace=wrap;html=1;" parent="1" vertex="1">
          <mxGeometry x="610" y="400" width="110" height="40" as="geometry" />
        </mxCell>
        <mxCell id="hvs8nfQZ57HfEIOSIwbS-21" value="&lt;font style=&quot;font-size: 14px&quot;&gt;Loan Against Property&lt;/font&gt;" style="ellipse;whiteSpace=wrap;html=1;" parent="1" vertex="1">
          <mxGeometry x="610" y="470" width="110" height="40" as="geometry" />
        </mxCell>
        <mxCell id="hvs8nfQZ57HfEIOSIwbS-22" value="&lt;font style=&quot;font-size: 14px&quot;&gt;Personal Loan&lt;/font&gt;" style="ellipse;whiteSpace=wrap;html=1;" parent="1" vertex="1">
          <mxGeometry x="610" y="150" width="110" height="40" as="geometry" />
        </mxCell>
        <mxCell id="hvs8nfQZ57HfEIOSIwbS-31" value="" style="endArrow=classic;html=1;exitX=1;exitY=0.3333333333333333;exitDx=0;exitDy=0;exitPerimeter=0;entryX=0;entryY=0.5;entryDx=0;entryDy=0;" parent="1" source="hvs8nfQZ57HfEIOSIwbS-6" target="hvs8nfQZ57HfEIOSIwbS-12" edge="1">
          <mxGeometry width="50" height="50" relative="1" as="geometry">
            <mxPoint x="170" y="230" as="sourcePoint" />
            <mxPoint x="320" y="160" as="targetPoint" />
          </mxGeometry>
        </mxCell>
        <mxCell id="hvs8nfQZ57HfEIOSIwbS-33" value="" style="endArrow=classic;html=1;exitX=1;exitY=0.3333333333333333;exitDx=0;exitDy=0;exitPerimeter=0;entryX=0;entryY=0.5;entryDx=0;entryDy=0;" parent="1" source="hvs8nfQZ57HfEIOSIwbS-6" target="hvs8nfQZ57HfEIOSIwbS-8" edge="1">
          <mxGeometry width="50" height="50" relative="1" as="geometry">
            <mxPoint x="149.99999999999977" y="300" as="sourcePoint" />
            <mxPoint x="309.9999999999998" y="230" as="targetPoint" />
          </mxGeometry>
        </mxCell>
        <mxCell id="hvs8nfQZ57HfEIOSIwbS-34" value="" style="endArrow=classic;html=1;entryX=0;entryY=0.5;entryDx=0;entryDy=0;exitX=1;exitY=0.3333333333333333;exitDx=0;exitDy=0;exitPerimeter=0;" parent="1" source="hvs8nfQZ57HfEIOSIwbS-6" target="hvs8nfQZ57HfEIOSIwbS-9" edge="1">
          <mxGeometry width="50" height="50" relative="1" as="geometry">
            <mxPoint x="170" y="230" as="sourcePoint" />
            <mxPoint x="319.9999999999998" y="285" as="targetPoint" />
          </mxGeometry>
        </mxCell>
        <mxCell id="hvs8nfQZ57HfEIOSIwbS-35" value="" style="endArrow=classic;html=1;entryX=0;entryY=0.5;entryDx=0;entryDy=0;exitX=1;exitY=0.3333333333333333;exitDx=0;exitDy=0;exitPerimeter=0;" parent="1" source="hvs8nfQZ57HfEIOSIwbS-6" target="hvs8nfQZ57HfEIOSIwbS-11" edge="1">
          <mxGeometry width="50" height="50" relative="1" as="geometry">
            <mxPoint x="160" y="230" as="sourcePoint" />
            <mxPoint x="319.9999999999998" y="345" as="targetPoint" />
          </mxGeometry>
        </mxCell>
        <mxCell id="hvs8nfQZ57HfEIOSIwbS-36" value="" style="endArrow=classic;html=1;entryX=0;entryY=0.5;entryDx=0;entryDy=0;exitX=1;exitY=0.3333333333333333;exitDx=0;exitDy=0;exitPerimeter=0;" parent="1" source="hvs8nfQZ57HfEIOSIwbS-6" target="hvs8nfQZ57HfEIOSIwbS-14" edge="1">
          <mxGeometry width="50" height="50" relative="1" as="geometry">
            <mxPoint x="159.99999999999977" y="285" as="sourcePoint" />
            <mxPoint x="319.9999999999998" y="395" as="targetPoint" />
          </mxGeometry>
        </mxCell>
        <mxCell id="hvs8nfQZ57HfEIOSIwbS-38" value="" style="endArrow=classic;html=1;entryX=0;entryY=0.5;entryDx=0;entryDy=0;exitX=1;exitY=0.3333333333333333;exitDx=0;exitDy=0;exitPerimeter=0;" parent="1" source="hvs8nfQZ57HfEIOSIwbS-6" target="hvs8nfQZ57HfEIOSIwbS-10" edge="1">
          <mxGeometry width="50" height="50" relative="1" as="geometry">
            <mxPoint x="129.99999999999977" y="370" as="sourcePoint" />
            <mxPoint x="299.9999999999998" y="490" as="targetPoint" />
          </mxGeometry>
        </mxCell>
        <mxCell id="hvs8nfQZ57HfEIOSIwbS-39" value="" style="endArrow=classic;html=1;exitX=1;exitY=0.3333333333333333;exitDx=0;exitDy=0;exitPerimeter=0;entryX=0;entryY=0.5;entryDx=0;entryDy=0;" parent="1" source="hvs8nfQZ57HfEIOSIwbS-6" target="hvs8nfQZ57HfEIOSIwbS-16" edge="1">
          <mxGeometry width="50" height="50" relative="1" as="geometry">
            <mxPoint x="109.99999999999977" y="360" as="sourcePoint" />
            <mxPoint x="320" y="500" as="targetPoint" />
          </mxGeometry>
        </mxCell>
        <mxCell id="hvs8nfQZ57HfEIOSIwbS-40" value="" style="endArrow=classic;html=1;exitX=1;exitY=0.3333333333333333;exitDx=0;exitDy=0;exitPerimeter=0;entryX=0;entryY=0.5;entryDx=0;entryDy=0;" parent="1" source="hvs8nfQZ57HfEIOSIwbS-6" target="hvs8nfQZ57HfEIOSIwbS-13" edge="1">
          <mxGeometry width="50" height="50" relative="1" as="geometry">
            <mxPoint x="109.99999999999977" y="350" as="sourcePoint" />
            <mxPoint x="279.9999999999998" y="570" as="targetPoint" />
          </mxGeometry>
        </mxCell>
        <mxCell id="hvs8nfQZ57HfEIOSIwbS-44" value="" style="endArrow=none;html=1;entryX=0;entryY=0.5;entryDx=0;entryDy=0;exitX=1;exitY=0.5;exitDx=0;exitDy=0;" parent="1" source="hvs8nfQZ57HfEIOSIwbS-11" target="hvs8nfQZ57HfEIOSIwbS-17" edge="1">
          <mxGeometry width="50" height="50" relative="1" as="geometry">
            <mxPoint x="440" y="330" as="sourcePoint" />
            <mxPoint x="490" y="280" as="targetPoint" />
          </mxGeometry>
        </mxCell>
        <mxCell id="hvs8nfQZ57HfEIOSIwbS-45" value="" style="endArrow=none;html=1;entryX=0;entryY=0.5;entryDx=0;entryDy=0;exitX=1;exitY=0.5;exitDx=0;exitDy=0;" parent="1" source="hvs8nfQZ57HfEIOSIwbS-11" target="hvs8nfQZ57HfEIOSIwbS-18" edge="1">
          <mxGeometry width="50" height="50" relative="1" as="geometry">
            <mxPoint x="429.9999999999998" y="390" as="sourcePoint" />
            <mxPoint x="520" y="330" as="targetPoint" />
          </mxGeometry>
        </mxCell>
        <mxCell id="hvs8nfQZ57HfEIOSIwbS-46" value="" style="endArrow=none;html=1;entryX=0;entryY=0.5;entryDx=0;entryDy=0;exitX=1;exitY=0.5;exitDx=0;exitDy=0;" parent="1" source="hvs8nfQZ57HfEIOSIwbS-11" target="hvs8nfQZ57HfEIOSIwbS-19" edge="1">
          <mxGeometry width="50" height="50" relative="1" as="geometry">
            <mxPoint x="449.9999999999998" y="350" as="sourcePoint" />
            <mxPoint x="540" y="290" as="targetPoint" />
          </mxGeometry>
        </mxCell>
        <mxCell id="hvs8nfQZ57HfEIOSIwbS-47" value="" style="endArrow=none;html=1;entryX=0;entryY=0.5;entryDx=0;entryDy=0;exitX=1;exitY=0.5;exitDx=0;exitDy=0;" parent="1" source="hvs8nfQZ57HfEIOSIwbS-11" target="hvs8nfQZ57HfEIOSIwbS-20" edge="1">
          <mxGeometry width="50" height="50" relative="1" as="geometry">
            <mxPoint x="459.9999999999998" y="360" as="sourcePoint" />
            <mxPoint x="550" y="300" as="targetPoint" />
          </mxGeometry>
        </mxCell>
        <mxCell id="hvs8nfQZ57HfEIOSIwbS-48" value="" style="endArrow=none;html=1;entryX=0;entryY=0.5;entryDx=0;entryDy=0;exitX=1;exitY=0.5;exitDx=0;exitDy=0;" parent="1" source="hvs8nfQZ57HfEIOSIwbS-11" target="hvs8nfQZ57HfEIOSIwbS-21" edge="1">
          <mxGeometry width="50" height="50" relative="1" as="geometry">
            <mxPoint x="431" y="370" as="sourcePoint" />
            <mxPoint x="520" y="510" as="targetPoint" />
          </mxGeometry>
        </mxCell>
        <mxCell id="hvs8nfQZ57HfEIOSIwbS-49" value="" style="endArrow=none;html=1;entryX=0;entryY=0.5;entryDx=0;entryDy=0;exitX=1;exitY=0.5;exitDx=0;exitDy=0;" parent="1" source="hvs8nfQZ57HfEIOSIwbS-11" target="hvs8nfQZ57HfEIOSIwbS-22" edge="1">
          <mxGeometry width="50" height="50" relative="1" as="geometry">
            <mxPoint x="439.9999999999998" y="300" as="sourcePoint" />
            <mxPoint x="530" y="240" as="targetPoint" />
          </mxGeometry>
        </mxCell>
        <mxCell id="hvs8nfQZ57HfEIOSIwbS-51" value="" style="endArrow=none;html=1;entryX=0.5;entryY=0;entryDx=0;entryDy=0;exitX=1;exitY=0.5;exitDx=0;exitDy=0;" parent="1" source="hvs8nfQZ57HfEIOSIwbS-10" target="hvs8nfQZ57HfEIOSIwbS-15" edge="1">
          <mxGeometry width="50" height="50" relative="1" as="geometry">
            <mxPoint x="440" y="480" as="sourcePoint" />
            <mxPoint x="490" y="430" as="targetPoint" />
          </mxGeometry>
        </mxCell>
        <mxCell id="hvs8nfQZ57HfEIOSIwbS-52" value="&lt;font style=&quot;font-size: 14px&quot;&gt;Loan Calculator&lt;/font&gt;" style="ellipse;whiteSpace=wrap;html=1;" parent="1" vertex="1">
          <mxGeometry x="320" y="620" width="110" height="40" as="geometry" />
        </mxCell>
        <mxCell id="hvs8nfQZ57HfEIOSIwbS-53" value="&lt;font style=&quot;font-size: 14px&quot;&gt;EMI Calculator&lt;/font&gt;" style="ellipse;whiteSpace=wrap;html=1;" parent="1" vertex="1">
          <mxGeometry x="320" y="560" width="110" height="40" as="geometry" />
        </mxCell>
        <mxCell id="hvs8nfQZ57HfEIOSIwbS-54" value="" style="endArrow=classic;html=1;entryX=0;entryY=0.5;entryDx=0;entryDy=0;exitX=1;exitY=0.3333333333333333;exitDx=0;exitDy=0;exitPerimeter=0;" parent="1" source="hvs8nfQZ57HfEIOSIwbS-6" target="hvs8nfQZ57HfEIOSIwbS-52" edge="1">
          <mxGeometry width="50" height="50" relative="1" as="geometry">
            <mxPoint x="140" y="330" as="sourcePoint" />
            <mxPoint x="329.9999999999998" y="690.0000000000002" as="targetPoint" />
          </mxGeometry>
        </mxCell>
        <mxCell id="hvs8nfQZ57HfEIOSIwbS-55" value="" style="endArrow=classic;html=1;exitX=1;exitY=0.3333333333333333;exitDx=0;exitDy=0;exitPerimeter=0;entryX=0;entryY=0.5;entryDx=0;entryDy=0;" parent="1" source="hvs8nfQZ57HfEIOSIwbS-6" target="hvs8nfQZ57HfEIOSIwbS-53" edge="1">
          <mxGeometry width="50" height="50" relative="1" as="geometry">
            <mxPoint x="159.99999999999977" y="350" as="sourcePoint" />
            <mxPoint x="339.9999999999998" y="700.0000000000002" as="targetPoint" />
          </mxGeometry>
        </mxCell>
        <mxCell id="hvs8nfQZ57HfEIOSIwbS-56" value="" style="endArrow=classic;html=1;exitX=1;exitY=0;exitDx=0;exitDy=0;entryX=1;entryY=0.5;entryDx=0;entryDy=0;" parent="1" source="hvs8nfQZ57HfEIOSIwbS-8" target="hvs8nfQZ57HfEIOSIwbS-12" edge="1">
          <mxGeometry relative="1" as="geometry">
            <mxPoint x="450" y="190" as="sourcePoint" />
            <mxPoint x="540" y="64" as="targetPoint" />
            <Array as="points">
              <mxPoint x="460" y="160" />
            </Array>
          </mxGeometry>
        </mxCell>
        <mxCell id="hvs8nfQZ57HfEIOSIwbS-57" value="includes" style="edgeLabel;resizable=0;html=1;align=center;verticalAlign=middle;" parent="hvs8nfQZ57HfEIOSIwbS-56" connectable="0" vertex="1">
          <mxGeometry relative="1" as="geometry" />
        </mxCell>
        <mxCell id="hvs8nfQZ57HfEIOSIwbS-60" value="" style="endArrow=classic;html=1;exitX=1;exitY=0.5;exitDx=0;exitDy=0;entryX=1;entryY=1;entryDx=0;entryDy=0;" parent="1" source="hvs8nfQZ57HfEIOSIwbS-9" target="hvs8nfQZ57HfEIOSIwbS-8" edge="1">
          <mxGeometry relative="1" as="geometry">
            <mxPoint x="429.9951303677855" y="265.74397355973156" as="sourcePoint" />
            <mxPoint x="446.4199999999998" y="210" as="targetPoint" />
            <Array as="points">
              <mxPoint x="440" y="240" />
            </Array>
          </mxGeometry>
        </mxCell>
        <mxCell id="hvs8nfQZ57HfEIOSIwbS-61" value="includes" style="edgeLabel;resizable=0;html=1;align=center;verticalAlign=middle;" parent="hvs8nfQZ57HfEIOSIwbS-60" connectable="0" vertex="1">
          <mxGeometry relative="1" as="geometry" />
        </mxCell>
        <mxCell id="hvs8nfQZ57HfEIOSIwbS-62" value="" style="endArrow=classic;html=1;exitX=1;exitY=1;exitDx=0;exitDy=0;entryX=1;entryY=0.5;entryDx=0;entryDy=0;" parent="1" source="hvs8nfQZ57HfEIOSIwbS-11" target="hvs8nfQZ57HfEIOSIwbS-14" edge="1">
          <mxGeometry relative="1" as="geometry">
            <mxPoint x="440" y="445.9999999999998" as="sourcePoint" />
            <mxPoint x="520" y="460" as="targetPoint" />
            <Array as="points">
              <mxPoint x="440" y="350" />
              <mxPoint x="450" y="370" />
            </Array>
          </mxGeometry>
        </mxCell>
        <mxCell id="hvs8nfQZ57HfEIOSIwbS-63" value="includes" style="edgeLabel;resizable=0;html=1;align=center;verticalAlign=middle;" parent="hvs8nfQZ57HfEIOSIwbS-62" connectable="0" vertex="1">
          <mxGeometry relative="1" as="geometry" />
        </mxCell>
        <mxCell id="hvs8nfQZ57HfEIOSIwbS-66" value="" style="endArrow=classic;html=1;exitX=1;exitY=0.5;exitDx=0;exitDy=0;entryX=1;entryY=1;entryDx=0;entryDy=0;" parent="1" source="hvs8nfQZ57HfEIOSIwbS-10" target="hvs8nfQZ57HfEIOSIwbS-14" edge="1">
          <mxGeometry relative="1" as="geometry">
            <mxPoint x="450" y="500" as="sourcePoint" />
            <mxPoint x="470" y="400" as="targetPoint" />
            <Array as="points">
              <mxPoint x="470" y="440" />
              <mxPoint x="460" y="410" />
            </Array>
          </mxGeometry>
        </mxCell>
        <mxCell id="hvs8nfQZ57HfEIOSIwbS-67" value="includes" style="edgeLabel;resizable=0;html=1;align=center;verticalAlign=middle;" parent="hvs8nfQZ57HfEIOSIwbS-66" connectable="0" vertex="1">
          <mxGeometry relative="1" as="geometry" />
        </mxCell>
        <mxCell id="hvs8nfQZ57HfEIOSIwbS-68" value="" style="endArrow=classic;html=1;exitX=1;exitY=0;exitDx=0;exitDy=0;entryX=1;entryY=0.5;entryDx=0;entryDy=0;" parent="1" source="hvs8nfQZ57HfEIOSIwbS-10" target="hvs8nfQZ57HfEIOSIwbS-8" edge="1">
          <mxGeometry relative="1" as="geometry">
            <mxPoint x="423.5751303677823" y="474.2560264402673" as="sourcePoint" />
            <mxPoint x="460" y="190" as="targetPoint" />
            <Array as="points">
              <mxPoint x="490" y="410" />
              <mxPoint x="530" y="370" />
              <mxPoint x="520" y="300" />
              <mxPoint x="510" y="230" />
            </Array>
          </mxGeometry>
        </mxCell>
        <mxCell id="hvs8nfQZ57HfEIOSIwbS-69" value="includes" style="edgeLabel;resizable=0;html=1;align=center;verticalAlign=middle;" parent="hvs8nfQZ57HfEIOSIwbS-68" connectable="0" vertex="1">
          <mxGeometry relative="1" as="geometry" />
        </mxCell>
        <mxCell id="XqrcpzK9R5oVKtfWA09P-2" value="&lt;font style=&quot;font-size: 14px&quot;&gt;Contact Admin&lt;/font&gt;" style="ellipse;whiteSpace=wrap;html=1;" vertex="1" parent="1">
          <mxGeometry x="320" y="680" width="110" height="40" as="geometry" />
        </mxCell>
        <mxCell id="XqrcpzK9R5oVKtfWA09P-3" value="" style="endArrow=classic;html=1;exitX=1;exitY=0.3333333333333333;exitDx=0;exitDy=0;exitPerimeter=0;entryX=0;entryY=0.5;entryDx=0;entryDy=0;" edge="1" parent="1" source="hvs8nfQZ57HfEIOSIwbS-6" target="XqrcpzK9R5oVKtfWA09P-2">
          <mxGeometry width="50" height="50" relative="1" as="geometry">
            <mxPoint x="170" y="398.33333333333337" as="sourcePoint" />
            <mxPoint x="330" y="769.9999999999998" as="targetPoint" />
          </mxGeometry>
        </mxCell>
      </root>
    </mxGraphModel>
  </diagram>
</mxfile>
